<svg width="585" height="341" viewBox="0 0 585 341" fill="none" xmlns="http://www.w3.org/2000/svg">
<path d="M522.995 340.799L481.538 181.261H460.247H436.485H415.194L373.737 340.799H418.79L425.257 315.948H471.495L477.963 340.799H523.015H522.995ZM461.673 278.139H435.079L448.376 226.972L461.673 278.139ZM428.893 47.1555H477.119V0.361038H428.893V0.240697H382.033V0.361038H333.807V47.1555H382.033V160.943H428.893V47.1555ZM325.009 83.3997C325.009 37.3273 287.89 0 242.095 0C196.299 0 159.18 37.3473 159.18 83.3997C159.18 129.452 196.299 166.819 242.095 166.819C287.89 166.819 325.009 129.472 325.009 83.3997ZM278.289 83.3997C278.289 103.517 262.08 119.824 242.095 119.824C222.109 119.824 205.9 103.517 205.9 83.3997C205.9 63.2819 222.109 46.975 242.095 46.975C262.08 46.975 278.289 63.2819 278.289 83.3997ZM172.819 181.261H151.528L110.07 340.799H155.123L161.591 315.948H207.828L214.296 340.799H259.348L217.891 181.261H172.839H172.819ZM171.413 278.139L184.709 226.972L198.006 278.139H171.413ZM92.2141 160.441H142.107V0.361038H92.2141V63.4022H49.9133V0.862479H0V160.943H49.9133V101.191H92.2141V160.421V160.441ZM49.9133 180.92H0V341H49.9133V340.799H97.8783V294.005H49.9133V180.92ZM245.971 181.261L287.428 340.799H346.521L387.978 181.261H342.926L316.975 281.128L291.024 181.261H245.971Z" fill="white"/>
<path d="M584.96 217.044L577.046 194.399L558.005 200.997V181.241H533.982V200.657L515.362 194.479L507.649 217.184L526.791 223.542L514.157 239.809L532.958 254.732L546.214 237.823L557.985 254.23L577.669 240.471L565.657 223.703L585 217.003L584.96 217.044Z" fill="white"/>
</svg>
